<?xml version="1.0" encoding="utf-8"?>
<svg version="1.1" id="レイヤー_1" xmlns="http://www.w3.org/2000/svg" xmlns:xlink="http://www.w3.org/1999/xlink" x="0px"
	 y="0px" viewBox="0 0 178 12" enable-background="new 0 0 178 12" xml:space="preserve">
<g>
	<g>
		<path fill="#595757" d="M59.1,0.6C59.1,0.6,59.1,0.6,59.1,0.6C59,0.5,59,0.5,59.1,0.6c-0.7,0-1,0-1.5-0.1c0,0,0,0-0.1,0
			c0,0,0,0,0,0.1c0.1,1.3,0.1,2.6,0.1,3.9V7c0,1.3-0.1,2.6-0.1,3.9c0,0,0,0,0,0.1c0,0,0,0,0.1,0c0,0,0,0,0,0c0.6-0.1,0.9-0.1,1.4,0
			c0,0,0,0,0.1,0c0,0,0,0,0-0.1C59,9.6,59,8.3,59,7V4.5C59,3.2,59,1.9,59.1,0.6z"/>
		<path fill="#595757" d="M69.7,0.5C69.7,0.5,69.6,0.5,69.7,0.5c-0.3,0-0.4,0.1-0.5,0.1c-0.1,0-0.3,0-0.5-0.1c0,0-0.1,0-0.1,0
			c0,0,0,0,0,0.1c0.1,2.2,0.1,5.1,0.1,7.7c-1.7-1.7-4.5-4.8-6.8-7.2l-0.6-0.7c0,0,0,0-0.1,0H61c0,0,0,0-0.1,0c0,0,0,0,0,0.1
			c0,0.7,0,2.1,0,4c0,2-0.2,5.8-0.3,6.5c0,0,0,0.1,0,0.1c0,0,0,0,0.1,0c0.2-0.1,0.4-0.1,0.5-0.1c0.2,0,0.3,0,0.5,0.1
			c0,0,0.1,0,0.1,0c0,0,0,0,0-0.1c-0.1-0.6-0.1-3.7-0.1-5c0-1.4,0-2.3,0-2.8l0.5,0.5c2.4,2.5,4.8,5.1,6.9,7.6c0,0,0,0,0.1,0h0.2
			c0,0,0,0,0.1,0c0,0,0,0,0-0.1c0-0.6,0-4,0-5.5C69.5,4.4,69.6,1.5,69.7,0.5C69.7,0.6,69.7,0.6,69.7,0.5z"/>
		<path fill="#595757" d="M79.2,0.6C79.2,0.5,79.2,0.5,79.2,0.6c-1.5,0-2.8,0-3.9,0c-1.1,0-2.4,0-3.8-0.1c0,0-0.1,0-0.1,0
			c0,0,0,0,0,0.1c0.1,0.2,0.1,0.3,0.1,0.4c0,0.1,0,0.3-0.1,0.5c0,0,0,0.1,0,0.1c0,0,0,0,0.1,0c0.8-0.1,2-0.2,3.1-0.2c0,1,0,2,0,3V7
			c0,1.3-0.1,2.6-0.1,3.9c0,0,0,0,0,0.1c0,0,0,0,0.1,0c0,0,0,0,0,0c0.6-0.1,0.9-0.1,1.4,0c0,0,0,0,0.1,0c0,0,0,0,0-0.1
			C76.1,9.6,76,8.3,76,7V4.5c0-1,0-2,0-3c1.1,0,2.3,0.1,3.1,0.2c0,0,0.1,0,0.1,0c0,0,0-0.1,0-0.1c0-0.2-0.1-0.3-0.1-0.4
			C79.2,0.9,79.2,0.8,79.2,0.6C79.3,0.6,79.3,0.6,79.2,0.6z"/>
		<path fill="#595757" d="M86.6,9.9C86.6,9.9,86.6,9.9,86.6,9.9c-0.9,0.1-2.5,0.2-4,0.2c0-0.3,0-0.9,0-2.2c0-1.3,0-1.7,0-2.1
			c0.7,0,2.5,0,3.5,0.1c0,0,0.1,0,0.1,0c0,0,0,0,0-0.1c0-0.1,0-0.3,0-0.4c0-0.1,0-0.3,0-0.4c0,0,0-0.1,0-0.1c0,0,0,0-0.1,0
			c-0.9,0.1-1.9,0.1-3.5,0.1c0-0.1,0-0.3,0-0.6c0-0.4,0-0.9,0-1.3c0-0.4,0-0.8,0-1.2c0-0.2,0-0.4,0-0.6c1.5,0,2.2,0.1,3.1,0.1
			c0.2,0,0.5,0,0.8,0.1c0,0,0.1,0,0.1,0c0,0,0,0,0-0.1c0-0.1,0-0.3,0-0.4c0-0.1,0-0.3,0-0.4c0,0,0-0.1,0-0.1c0,0,0,0-0.1,0
			c-1,0.1-1.8,0.1-2.6,0.1c-0.8,0-1.6,0-2.7-0.1c0,0,0,0-0.1,0c0,0,0,0,0,0.1c0.1,1.2,0.1,2.5,0.1,3.8V7c0,1.3-0.1,2.6-0.1,3.9
			c0,0,0,0,0,0.1c0,0,0,0,0.1,0c1-0.1,1.9-0.1,2.7-0.1c0.8,0,1.7,0,2.7,0.1c0,0,0,0,0,0c0,0,0,0,0.1,0c0,0,0,0,0-0.1
			c0-0.1,0-0.3,0-0.4C86.6,10.3,86.6,10.1,86.6,9.9C86.7,10,86.7,10,86.6,9.9z"/>
		<path fill="#595757" d="M93,6.9c-0.3-0.4-0.6-0.8-0.8-1c1.2-0.2,3-1,3-2.9c0-1.6-1.1-2.4-3.2-2.4c-0.3,0-0.6,0-0.9,0
			c-0.3,0-0.6,0-0.8,0c-0.5,0-1.1,0-1.7-0.1c0,0,0,0-0.1,0c0,0,0,0,0,0.1c0.1,1.3,0.1,2.6,0.1,3.9V7c0,1.3-0.1,2.6-0.1,3.9
			c0,0,0,0,0,0.1c0,0,0,0,0.1,0c0.6-0.1,0.9-0.1,1.4,0c0,0,0,0,0.1,0c0,0,0,0,0-0.1C90.1,9.6,90,8.3,90,7V6h0.4
			c1.3,1.3,3.3,4,3.8,4.9c0,0,0,0,0.1,0c0,0,0,0,0,0c0.3,0,0.6-0.1,0.9-0.1c0.3,0,0.6,0,0.9,0.1c0,0,0.1,0,0.1,0c0,0,0-0.1,0-0.1
			C95.5,10.1,94.1,8.3,93,6.9z M90,4.5c0-1,0-2.1,0.1-3.2c0.3,0,0.7-0.1,1.4-0.1c0.7,0,2.2,0.2,2.2,1.9c0,1.6-1.4,2.2-2.8,2.2
			c-0.3,0-0.6,0-0.9-0.1V4.5z"/>
		<path fill="#595757" d="M107,0.5C107,0.5,107,0.5,107,0.5c-0.3,0-0.4,0.1-0.5,0.1c-0.1,0-0.3,0-0.5-0.1c0,0-0.1,0-0.1,0
			c0,0,0,0,0,0.1c0.1,2.2,0.1,5.1,0.1,7.7c-1.7-1.7-4.5-4.8-6.8-7.2l-0.6-0.7c0,0,0,0-0.1,0h-0.2c0,0,0,0-0.1,0c0,0,0,0,0,0.1
			c0,0.7,0,2.1,0,4c0,2-0.2,5.8-0.3,6.5c0,0,0,0.1,0,0.1c0,0,0,0,0.1,0c0.2-0.1,0.4-0.1,0.5-0.1c0.2,0,0.3,0,0.5,0.1
			c0,0,0.1,0,0.1,0c0,0,0,0,0-0.1c-0.1-0.6-0.1-3.7-0.1-5c0-1.4,0-2.3,0-2.8l0.5,0.5c2.4,2.5,4.8,5.1,6.9,7.6c0,0,0,0,0.1,0h0.2
			c0,0,0,0,0.1,0c0,0,0,0,0-0.1c0-0.6,0-4,0-5.5C106.8,4.4,106.9,1.5,107,0.5C107,0.6,107,0.6,107,0.5z"/>
		<path fill="#595757" d="M114.3,9.9C114.3,9.9,114.2,9.9,114.3,9.9c-0.9,0.1-2.5,0.2-4,0.2c0-0.3,0-0.9,0-2.2c0-1.3,0-1.7,0-2.1
			c0.7,0,2.5,0,3.5,0.1c0,0,0.1,0,0.1,0c0,0,0,0,0-0.1c0-0.1,0-0.3,0-0.4c0-0.1,0-0.3,0-0.4c0,0,0-0.1,0-0.1c0,0,0,0-0.1,0
			c-0.9,0.1-1.9,0.1-3.5,0.1c0-0.1,0-0.3,0-0.6c0-0.4,0-0.9,0-1.3c0-0.4,0-0.8,0-1.2c0-0.2,0-0.4,0-0.6c1.5,0,2.2,0.1,3.1,0.1
			c0.2,0,0.5,0,0.8,0.1c0,0,0.1,0,0.1,0c0,0,0,0,0-0.1c0-0.1,0-0.3,0-0.4c0-0.1,0-0.3,0-0.4c0,0,0,0,0-0.1c0,0,0,0-0.1,0
			c-1,0.1-1.8,0.1-2.6,0.1c-0.8,0-1.6,0-2.7-0.1c0,0,0,0-0.1,0c0,0,0,0,0,0.1c0.1,1.2,0.1,2.5,0.1,3.8V7c0,1.3-0.1,2.6-0.1,3.9
			c0,0,0,0,0,0.1c0,0,0,0,0.1,0c1-0.1,1.9-0.1,2.7-0.1c0.8,0,1.7,0,2.7,0.1c0,0,0,0,0,0c0,0,0,0,0.1,0c0,0,0,0,0-0.1
			c0-0.1,0-0.3,0-0.4C114.3,10.3,114.3,10.1,114.3,9.9C114.3,10,114.3,10,114.3,9.9z"/>
		<path fill="#595757" d="M124.1,0.6C124.1,0.5,124.1,0.5,124.1,0.6c-1.5,0-2.8,0-3.9,0c-1.1,0-2.4,0-3.8-0.1c0,0-0.1,0-0.1,0
			c0,0,0,0,0,0.1c0.1,0.2,0.1,0.3,0.1,0.4c0,0.1,0,0.3-0.1,0.5c0,0,0,0.1,0,0.1c0,0,0,0,0.1,0c0.8-0.1,2-0.2,3.1-0.2c0,1,0,2,0,3V7
			c0,1.3-0.1,2.6-0.1,3.9c0,0,0,0,0,0.1c0,0,0,0,0.1,0c0,0,0,0,0,0c0.6-0.1,0.9-0.1,1.4,0c0,0,0,0,0.1,0c0,0,0,0,0-0.1
			c-0.1-1.3-0.1-2.6-0.1-3.9V4.5c0-1,0-2,0-3c1.1,0,2.3,0.1,3.1,0.2c0,0,0.1,0,0.1,0c0,0,0-0.1,0-0.1c0-0.2-0.1-0.3-0.1-0.4
			C124,0.9,124.1,0.8,124.1,0.6C124.1,0.6,124.1,0.6,124.1,0.6z"/>
		<path fill="#595757" d="M136.6,1.2c-0.8-0.4-1.9-0.9-3.8-0.9c-3.6,0-5.9,2.1-5.9,5.4c0,3.4,2.1,5.4,5.8,5.4c1.2,0,3-0.4,3.8-0.7
			c0,0,0.1,0,0.1-0.1c0-0.2,0-0.4,0-0.6c0-0.2,0-0.4,0-0.6c0-1.9,0-2.8,0.1-3c0,0,0-0.1,0-0.1c0,0,0,0-0.1,0c-0.2,0-0.4,0.1-0.6,0.1
			c-0.2,0-0.5,0-0.7-0.1c0,0-0.1,0-0.1,0c0,0,0,0,0,0.1l0,0.4c0,0.5,0.1,1.1,0.1,1.7c0,0.6,0,1.2,0,1.8c-0.5,0.3-1.6,0.4-2.3,0.4
			c-2.7,0-4.4-1.7-4.4-4.6c0-3,1.6-4.7,4.3-4.7c1.5,0,2.6,0.7,3.2,1.4c0,0,0,0,0.1,0h0.2c0,0,0.1,0,0.1-0.1c0-0.4,0.2-0.9,0.3-1.1
			C136.6,1.3,136.6,1.3,136.6,1.2C136.6,1.2,136.6,1.2,136.6,1.2z"/>
		<path fill="#595757" d="M143.2,6.9c-0.3-0.4-0.6-0.8-0.8-1c1.2-0.2,3-1,3-2.9c0-1.6-1.1-2.4-3.2-2.4c-0.3,0-0.6,0-0.9,0
			c-0.3,0-0.6,0-0.8,0c-0.5,0-1.1,0-1.7-0.1c0,0,0,0-0.1,0c0,0,0,0,0,0.1c0.1,1.3,0.1,2.6,0.1,3.9V7c0,1.3-0.1,2.6-0.1,3.9
			c0,0,0,0,0,0.1c0,0,0,0,0.1,0c0.6-0.1,0.9-0.1,1.4,0c0,0,0,0,0.1,0c0,0,0,0,0-0.1c-0.1-1.3-0.1-2.6-0.1-3.9V6h0.4
			c1.3,1.3,3.3,4,3.8,4.9c0,0,0,0,0.1,0c0.3,0,0.6-0.1,0.9-0.1c0.3,0,0.6,0,0.9,0.1c0,0,0,0,0,0c0,0,0.1,0,0.1,0c0,0,0-0.1,0-0.1
			C145.7,10.1,144.2,8.3,143.2,6.9z M140.2,4.5c0-1,0-2.1,0.1-3.2c0.3,0,0.7-0.1,1.4-0.1c0.7,0,2.2,0.2,2.2,1.9
			c0,1.6-1.4,2.2-2.8,2.2c-0.3,0-0.6,0-0.9-0.1V4.5z"/>
		<path fill="#595757" d="M152.3,0.3c-3.4,0-5.7,2.1-5.7,5.4c0,3.3,2.2,5.4,5.7,5.4c3.4,0,5.7-2.1,5.7-5.4
			C158,2.5,155.8,0.3,152.3,0.3z M152.3,10.4c-2.6,0-4-1.7-4-4.7c0-3,1.5-4.7,4-4.7c2.6,0,4,1.7,4,4.7
			C156.4,8.7,154.9,10.4,152.3,10.4z"/>
		<path fill="#595757" d="M168.5,0.5c-0.1,0-0.3,0.1-0.4,0.1c-0.2,0-0.4,0-0.6-0.1c0,0-0.1,0-0.1,0c0,0,0,0,0,0.1
			c0.1,0.6,0.1,2,0.1,4.8c0,1.9,0,4.8-3.2,4.8c-3.2,0-3.2-2.5-3.2-4.6c0-2.2,0.1-4.2,0.2-5.1c0,0,0-0.1,0-0.1c0,0,0,0-0.1,0
			c-0.2,0-0.4,0.1-0.6,0.1c-0.2,0-0.5,0-0.8-0.1c0,0-0.1,0-0.1,0c0,0,0,0,0,0.1l0,0.4c0,0.9,0.1,2.1,0.1,3.5c0,0.4,0,0.7,0,1
			c0,0.4,0,0.8,0,1.3c0,3,1.4,4.3,4.3,4.3c2.7,0,4.3-1.6,4.3-4.4c0-2.1,0.1-4.7,0.3-6.2C168.6,0.6,168.6,0.6,168.5,0.5
			C168.6,0.5,168.5,0.5,168.5,0.5z"/>
		<path fill="#595757" d="M174,0.5c-0.2,0-0.5,0-0.9,0c-0.4,0-0.7,0-1,0c-0.4,0-0.9,0-1.4-0.1c0,0,0,0-0.1,0c0,0,0,0,0,0.1
			c0.1,1.3,0.1,2.6,0.1,3.9V7c0,1.3-0.1,2.6-0.1,3.9c0,0,0,0,0,0.1c0,0,0,0,0.1,0c0,0,0,0,0,0c0.6-0.1,0.9-0.1,1.4,0c0,0,0,0,0.1,0
			c0,0,0,0,0-0.1c-0.1-1.3-0.1-2.6-0.1-3.9V6.3c0.4,0,0.7,0,1.1,0c2,0,4.1-0.8,4.1-3.2C177.3,0.5,174.8,0.5,174,0.5z M175.8,3.2
			c0,2.1-1.7,2.4-2.7,2.4c-0.3,0-0.7,0-1-0.1V1.2h1.3C174.8,1.2,175.8,1.6,175.8,3.2z"/>
	</g>
	<g>
		<path fill="#005BAB" d="M27.5,10.4h0.7c0,0,0.1,0,0.1-0.1l3-5l1.7,5.7c0,0,0,0.1,0.1,0.1h3.2c0,0,0.1,0,0-0.1L33,0.4
			c0,0-0.1-0.1-0.1-0.1h-1.2c0,0-0.1,0-0.1,0.1l-4.1,6.4l-4.1-6.4c0,0-0.1-0.1-0.1-0.1H22c0,0-0.1,0-0.1,0.1l-3.4,10.7
			c0,0,0,0.1,0,0.1h3.2c0,0,0.1,0,0.1-0.1l1.7-5.7l3,5c0,0,0.1,0.1,0.1,0.1H27.5z"/>
		<g>
			<path fill="#005BAB" d="M18.7,5.1C18.7,5.1,18.7,5.1,18.7,5.1C18.7,5.1,18.7,5.1,18.7,5.1l-0.5-0.1h-3.2H9.5
				c-0.5,0-0.9,0.4-0.9,0.9s0.4,0.9,0.9,0.9h0H15c-0.6,1.7-2.8,3-5.4,3c-3.1,0-5.6-1.8-5.6-4c0-2.2,2.5-4,5.6-4
				c1.7,0,3.2,0.5,4.2,1.4c0,0,0,0,0,0c0,0,0,0,0,0h3.7c0,0,0.1,0,0.1-0.1c0,0,0,0,0,0c0,0,0,0,0,0C16,1.3,13,0.2,9.5,0.2
				c-5.1,0-9.2,2.5-9.2,5.6s4.1,5.5,9.2,5.5c5.1,0,9.2-2.5,9.2-5.5C18.8,5.5,18.8,5.3,18.7,5.1z"/>
		</g>
		<path fill="#005BAB" d="M45.4,0.2c-5.1,0-9.2,2.5-9.2,5.6s4.1,5.5,9.2,5.5c5.1,0,9.2-2.5,9.2-5.5S50.5,0.2,45.4,0.2z M45.4,9.8
			c-3.1,0-5.6-1.8-5.6-4c0-2.2,2.5-4,5.6-4c3.1,0,5.6,1.8,5.6,4C51,8,48.5,9.8,45.4,9.8z"/>
	</g>
</g>
</svg>
