<?xml version="1.0" encoding="utf-8"?>
<!-- Generator: Adobe Illustrator 19.2.1, SVG Export Plug-In . SVG Version: 6.00 Build 0)  -->
<svg version="1.1" id="logo" width="100%" height="100%" xmlns="http://www.w3.org/2000/svg" xmlns:xlink="http://www.w3.org/1999/xlink" x="0px"
	 y="0px" viewBox="0 0 228 26" style="enable-background:new 0 0 228 26;" xml:space="preserve">
<style type="text/css">
	.st0{fill:#D62825;}
</style>
<path class="st0" d="M12.6,19.4l-2.2,0.9L31.1,5H7.3C5.4,5,3.8,6.6,3.8,8.6c0,0.9,0.3,1.5,0.3,1.5C8.5,6.6,15,6.7,18.5,6.7l2.2-0.9
	L0,21h27.1c1.9,0,3.5-1.6,3.5-3.5c0-2-0.8-3.1-0.8-3.1C26.2,18.7,19.3,19.4,12.6,19.4z"/>
<path class="st0" d="M94.9,8.1c-2,0-4,0.5-5.7,1.2c-1.3-0.8-3-1.2-5-1.2c-2.6,0.1-6.6,1.3-7.6,5L74.4,21h5.2l2.1-7.7
	c0.3-0.9,1.1-1.6,2.3-1.6c1.2,0,1.6,0.7,1.4,1.6L83.3,21h5.2l2.1-7.7c0.3-0.9,1.1-1.6,2.3-1.6c1.2,0,1.6,0.7,1.4,1.6L92.2,21h5.2
	l2.2-7.9C100.7,9.4,97.4,8.2,94.9,8.1z"/>
<circle class="st0" cx="34.3" cy="18.7" r="2.6"/>
<path class="st0" d="M68,8.1c-5.2,0-10.2,3-11.2,6.6s2.4,6.6,7.6,6.6s10.2-3,11.2-6.6S73.2,8.1,68,8.1z M70.5,14.7
	c-0.5,1.7-2.8,3-5.1,3c-2.4,0-3.9-1.3-3.4-3s2.8-3,5.1-3C69.4,11.7,70.9,13,70.5,14.7z"/>
<path class="st0" d="M50.5,16.1c-1,1-2.6,1.6-4.3,1.6c-2.4,0-3.9-1.3-3.4-3s2.8-3,5.1-3c1.6,0,2.8,0.6,3.3,1.5h5.5
	c-0.2-2.9-3.3-5.1-7.7-5.1c-5.2,0-10.2,3-11.2,6.6s2.4,6.6,7.6,6.6c4.5,0,8.9-2.2,10.6-5.2C56,16.1,50.5,16.1,50.5,16.1z"/>
<path class="st0" d="M107.6,14.5H106v6.6h-1.6v-6.6h-1V13h1v-0.9c0-0.6,0.1-1,0.2-1.3s0.3-0.5,0.6-0.7c0.5-0.3,1.2-0.3,2.2,0
	l0.2,0.1v1.6c0,0-0.4-0.2-0.9-0.3c-0.4-0.1-0.7,0.2-0.7,0.6V13h1.5v1.5H107.6z M115.3,14.2c0.7,0.8,1.1,1.8,1.1,2.9
	s-0.4,2.1-1.2,2.9c-0.8,0.8-1.8,1.3-3,1.3s-2.2-0.4-3-1.3c-0.8-0.8-1.2-1.8-1.2-2.9s0.4-2.1,1.1-2.9c0.8-0.9,1.8-1.3,3.1-1.3
	C113.5,12.8,114.5,13.3,115.3,14.2z M110.4,15.2c-0.5,0.5-0.8,1.2-0.8,1.9c0,0.5,0.1,0.9,0.3,1.3c0.2,0.4,0.5,0.7,0.9,1
	c0.8,0.5,1.8,0.5,2.6,0c0.4-0.2,0.7-0.5,0.9-1c0.2-0.4,0.3-0.9,0.3-1.3c0-0.8-0.3-1.4-0.8-1.9s-1.1-0.8-1.8-0.8
	C111.5,14.4,110.9,14.7,110.4,15.2z M119.5,13.2c-0.2,0.1-0.3,0.2-0.4,0.4V13h-1.6v8h1.6v-2.8c0-1.3,0.1-2.1,0.2-2.5
	c0.1-0.5,0.3-0.8,0.6-1.1c0.2-0.2,0.5-0.3,0.7-0.3c0.1,0,0.2,0,0.4,0.1l0.2,0.1l0.8-1.3l-0.3-0.2C120.9,12.7,120.2,12.8,119.5,13.2z
	 M138.2,15.5L134.1,5h-0.7l-4.2,10.5l-3-10.5H124l4.5,16h0.7l4.5-11.1l4.4,11.1h0.7l4.6-16h-2.2L138.2,15.5z M154.3,10.8
	c1.1,1.2,1.7,2.7,1.7,4.3c0,1.7-0.6,3.1-1.7,4.4c-1.2,1.2-2.7,1.9-4.5,1.9s-3.3-0.6-4.5-1.9c-1.2-1.2-1.7-2.7-1.7-4.4
	s0.6-3.1,1.7-4.3c1.2-1.3,2.8-2,4.6-2C151.5,8.8,153.1,9.4,154.3,10.8z M146.8,12.1c-0.8,0.8-1.2,1.8-1.2,3.1c0,0.8,0.2,1.5,0.6,2.2
	c0.4,0.7,0.9,1.2,1.5,1.5c1.3,0.7,2.9,0.7,4.2,0c0.6-0.4,1.1-0.9,1.5-1.5c0.4-0.7,0.6-1.4,0.6-2.2c0-1.2-0.4-2.2-1.2-3.1
	c-0.8-0.8-1.8-1.3-2.9-1.3C148.5,10.8,147.6,11.2,146.8,12.1z M163.7,9.2c-1.2-0.7-2.2-0.5-3.2,0.1c-0.3,0.2-0.6,0.5-0.9,0.8v-1
	h-2.1v12h2.1v-4.2c0-1.9,0.1-3.2,0.3-3.9c0.2-0.8,0.5-1.4,0.9-1.7c0.4-0.4,0.8-0.5,1.2-0.5c0.2,0,0.4,0.1,0.7,0.2l0.2,0.1l1.1-1.7
	L163.7,9.2z M174.4,4.7h2.1v16.4h-2.1v-1.5c-0.5,0.5-1,0.9-1.6,1.2c-0.8,0.4-1.7,0.6-2.6,0.6c-1.7,0-3.2-0.6-4.4-1.8
	c-1.2-1.2-1.8-2.7-1.8-4.5c0-1.7,0.6-3.2,1.8-4.4s2.7-1.8,4.4-1.8c1,0,1.9,0.2,2.7,0.6c0.6,0.3,1.1,0.7,1.5,1.2L174.4,4.7L174.4,4.7
	z M170.3,10.8c-0.8,0-1.5,0.2-2.1,0.6c-0.6,0.4-1.2,0.9-1.5,1.6c-0.4,0.7-0.6,1.4-0.6,2.2c0,0.7,0.2,1.5,0.6,2.2
	c0.4,0.7,0.9,1.2,1.5,1.6c1.3,0.8,2.9,0.8,4.2,0c0.7-0.4,1.2-0.9,1.5-1.5c0.4-0.6,0.5-1.4,0.5-2.2c0-1.2-0.4-2.3-1.2-3.1
	C172.5,11.2,171.5,10.8,170.3,10.8z M188.4,6.7c0.6,0.7,0.9,1.6,0.9,2.7s-0.3,2-0.9,2.7c-0.6,0.7-1.4,1.2-2.4,1.5
	c-0.7,0.2-2,0.3-4,0.3h-0.8v7.2H179V5h3.4c1.8,0,3,0.1,3.6,0.2C187,5.5,187.8,6,188.4,6.7z M186.7,8.2c-0.2-0.4-0.6-0.6-1-0.8
	c-0.4-0.2-1.1-0.3-2.1-0.3h-2.4v4.6h2.3c1,0,1.7-0.1,2.2-0.3c0.4-0.2,0.8-0.4,1-0.8c0.2-0.4,0.4-0.8,0.4-1.3
	C187.1,9,187,8.6,186.7,8.2z M197.1,9.2c-1.2-0.7-2.2-0.5-3.2,0.1c-0.3,0.2-0.6,0.5-0.9,0.8v-1h-2.1v12h2.1v-4.2
	c0-1.9,0.1-3.2,0.3-3.9c0.2-0.8,0.5-1.4,0.9-1.7c0.4-0.4,0.8-0.5,1.2-0.5c0.2,0,0.4,0.1,0.7,0.2l0.2,0.1l1.1-1.7L197.1,9.2z
	 M209.7,15.5h-10.2c0.1,1.1,0.5,2,1.2,2.7c0.8,0.8,1.7,1.2,2.8,1.2c0.5,0,1.1-0.1,1.6-0.3c0.5-0.2,1-0.4,1.3-0.7
	c0.4-0.3,0.8-0.8,1.2-1.5l0.1-0.2l1.8,0.9l-0.1,0.3c-0.4,0.8-0.9,1.5-1.5,2s-1.2,0.9-1.9,1.2c-0.7,0.3-1.5,0.4-2.4,0.4
	c-1.9,0-3.5-0.7-4.6-1.9c-1.1-1.3-1.6-2.7-1.6-4.3c0-1.5,0.5-2.9,1.4-4.1c1.2-1.5,2.8-2.3,4.8-2.3s3.7,0.8,4.9,2.3
	c0.9,1.1,1.3,2.5,1.3,4.1L209.7,15.5z M207.4,13.6c-0.2-0.6-0.4-1-0.7-1.4s-0.8-0.8-1.4-1c-0.6-0.3-1.2-0.4-1.8-0.4
	c-1,0-1.9,0.3-2.7,1c-0.5,0.4-0.8,1-1.1,1.8C199.7,13.6,207.4,13.6,207.4,13.6z M216.3,11.8l0.2,0.2l1.4-1.4l-0.2-0.2
	c-1.1-1.1-2.3-1.6-3.4-1.6c-1,0-1.8,0.3-2.5,0.9c-0.6,0.6-1,1.4-1,2.4c0,0.7,0.2,1.4,0.6,1.9c0.4,0.6,1.1,1.1,2.2,1.7
	c1.1,0.6,1.6,0.9,1.8,1.1c0.2,0.3,0.3,0.6,0.3,0.9c0,0.4-0.2,0.8-0.5,1.1c-0.4,0.3-0.8,0.5-1.3,0.5c-0.8,0-1.5-0.4-2.2-1.2l-0.2-0.3
	l-1.3,1.5l0.2,0.2c0.4,0.5,1,1,1.6,1.3s1.3,0.5,2,0.5c1.1,0,2-0.4,2.7-1.1s1.1-1.6,1.1-2.6c0-0.7-0.2-1.4-0.6-2
	c-0.4-0.6-1.2-1.1-2.3-1.7c-1.1-0.5-1.5-0.9-1.7-1.1c-0.2-0.3-0.3-0.6-0.3-0.9c0-0.3,0.1-0.6,0.4-0.9
	C214,10.4,215.1,10.7,216.3,11.8z M223,14c-1.1-0.5-1.5-0.9-1.7-1.1c-0.2-0.3-0.3-0.6-0.3-0.9c0-0.3,0.1-0.6,0.4-0.9
	c0.8-0.7,1.9-0.5,3.1,0.7l0.2,0.2l1.4-1.4l-0.2-0.2c-1.1-1.1-2.3-1.6-3.4-1.6c-1,0-1.8,0.3-2.5,0.9c-0.7,0.6-1,1.4-1,2.4
	c0,0.7,0.2,1.4,0.6,1.9c0.4,0.6,1.1,1.1,2.2,1.7c1.1,0.6,1.6,0.9,1.8,1.1c0.2,0.3,0.3,0.6,0.3,0.9c0,0.4-0.2,0.8-0.5,1.1
	c-0.4,0.3-0.8,0.5-1.3,0.5c-0.7,0-1.5-0.4-2.2-1.2l-0.2-0.3l-1.3,1.5l0.2,0.2c0.4,0.5,1,1,1.6,1.3s1.3,0.5,2,0.5
	c1.1,0,2-0.4,2.7-1.1s1.1-1.6,1.1-2.6c0-0.7-0.2-1.4-0.6-2C224.9,15.2,224.1,14.6,223,14z"/>
</svg>
